<mxfile host="Electron" agent="Mozilla/5.0 (Windows NT 10.0; Win64; x64) AppleWebKit/537.36 (KHTML, like Gecko) draw.io/26.0.16 Chrome/132.0.6834.196 Electron/34.2.0 Safari/537.36" version="26.0.16">
  <diagram id="prtHgNgQTEPvFCAcTncT" name="Page-1">
    <mxGraphModel dx="398" dy="232" grid="1" gridSize="10" guides="1" tooltips="1" connect="1" arrows="1" fold="1" page="1" pageScale="1" pageWidth="827" pageHeight="1169" math="0" shadow="0">
      <root>
        <mxCell id="0" />
        <mxCell id="1" parent="0" />
        <mxCell id="dNxyNK7c78bLwvsdeMH5-19" value="Modelo As-Is: Consulta às FISPQ&#39;s" style="swimlane;html=1;childLayout=stackLayout;resizeParent=1;resizeParentMax=0;horizontal=0;startSize=20;horizontalStack=0;" parent="1" vertex="1">
          <mxGeometry x="120" y="120" width="560" height="360" as="geometry" />
        </mxCell>
        <mxCell id="nLnUjlvC0J46Ff9aY2Y2-34" style="edgeStyle=orthogonalEdgeStyle;rounded=1;orthogonalLoop=1;jettySize=auto;html=1;exitX=0.75;exitY=0;exitDx=0;exitDy=0;entryX=0.548;entryY=1.004;entryDx=0;entryDy=0;endArrow=classic;endFill=0;dashed=1;startArrow=oval;startFill=0;entryPerimeter=0;curved=0;" parent="dNxyNK7c78bLwvsdeMH5-19" source="nLnUjlvC0J46Ff9aY2Y2-1" target="nLnUjlvC0J46Ff9aY2Y2-42" edge="1">
          <mxGeometry relative="1" as="geometry">
            <Array as="points">
              <mxPoint x="208" y="110" />
              <mxPoint x="409" y="110" />
            </Array>
          </mxGeometry>
        </mxCell>
        <mxCell id="nLnUjlvC0J46Ff9aY2Y2-32" style="edgeStyle=orthogonalEdgeStyle;rounded=0;orthogonalLoop=1;jettySize=auto;html=1;exitX=0.75;exitY=0;exitDx=0;exitDy=0;entryX=0.75;entryY=1;entryDx=0;entryDy=0;dashed=1;endArrow=classic;endFill=0;startArrow=oval;startFill=0;" parent="dNxyNK7c78bLwvsdeMH5-19" source="nLnUjlvC0J46Ff9aY2Y2-21" target="nLnUjlvC0J46Ff9aY2Y2-1" edge="1">
          <mxGeometry relative="1" as="geometry" />
        </mxCell>
        <mxCell id="nLnUjlvC0J46Ff9aY2Y2-28" style="edgeStyle=orthogonalEdgeStyle;rounded=1;orthogonalLoop=1;jettySize=auto;html=1;exitX=0.5;exitY=1;exitDx=0;exitDy=0;entryX=0.5;entryY=0;entryDx=0;entryDy=0;dashed=1;curved=0;startArrow=oval;startFill=0;endArrow=classic;endFill=0;" parent="dNxyNK7c78bLwvsdeMH5-19" source="nLnUjlvC0J46Ff9aY2Y2-1" target="nLnUjlvC0J46Ff9aY2Y2-17" edge="1">
          <mxGeometry relative="1" as="geometry">
            <Array as="points">
              <mxPoint x="185" y="260" />
              <mxPoint x="85" y="260" />
            </Array>
          </mxGeometry>
        </mxCell>
        <mxCell id="nLnUjlvC0J46Ff9aY2Y2-10" style="edgeStyle=orthogonalEdgeStyle;rounded=1;orthogonalLoop=1;jettySize=auto;html=1;exitX=0.5;exitY=1;exitDx=0;exitDy=0;entryX=0.5;entryY=0;entryDx=0;entryDy=0;curved=0;dashed=1;startArrow=oval;startFill=0;spacing=-3;endArrow=classic;endFill=0;" parent="dNxyNK7c78bLwvsdeMH5-19" source="dNxyNK7c78bLwvsdeMH5-24" target="nLnUjlvC0J46Ff9aY2Y2-2" edge="1">
          <mxGeometry relative="1" as="geometry">
            <Array as="points">
              <mxPoint x="185" y="140" />
              <mxPoint x="85" y="140" />
            </Array>
          </mxGeometry>
        </mxCell>
        <mxCell id="dNxyNK7c78bLwvsdeMH5-20" value="Funcionário" style="swimlane;html=1;startSize=20;horizontal=0;" parent="dNxyNK7c78bLwvsdeMH5-19" vertex="1">
          <mxGeometry x="20" width="540" height="120" as="geometry" />
        </mxCell>
        <mxCell id="dNxyNK7c78bLwvsdeMH5-25" value="" style="edgeStyle=orthogonalEdgeStyle;rounded=0;orthogonalLoop=1;jettySize=auto;html=1;" parent="dNxyNK7c78bLwvsdeMH5-20" source="dNxyNK7c78bLwvsdeMH5-23" target="dNxyNK7c78bLwvsdeMH5-24" edge="1">
          <mxGeometry relative="1" as="geometry" />
        </mxCell>
        <mxCell id="dNxyNK7c78bLwvsdeMH5-23" value="" style="ellipse;whiteSpace=wrap;html=1;fillColor=#d5e8d4;strokeColor=#82b366;" parent="dNxyNK7c78bLwvsdeMH5-20" vertex="1">
          <mxGeometry x="50" y="45" width="30" height="30" as="geometry" />
        </mxCell>
        <mxCell id="nLnUjlvC0J46Ff9aY2Y2-36" style="edgeStyle=orthogonalEdgeStyle;rounded=0;orthogonalLoop=1;jettySize=auto;html=1;exitX=1;exitY=0.5;exitDx=0;exitDy=0;" parent="dNxyNK7c78bLwvsdeMH5-20" source="dNxyNK7c78bLwvsdeMH5-24" edge="1">
          <mxGeometry relative="1" as="geometry">
            <mxPoint x="260.0000000000001" y="59.97297297297297" as="targetPoint" />
          </mxGeometry>
        </mxCell>
        <mxCell id="dNxyNK7c78bLwvsdeMH5-24" value="Solicitar Ficha de Informações de Produto Químico" style="rounded=1;whiteSpace=wrap;html=1;fontFamily=Helvetica;fontSize=9;align=center;fillColor=#dae8fc;strokeColor=#6c8ebf;" parent="dNxyNK7c78bLwvsdeMH5-20" vertex="1">
          <mxGeometry x="120" y="30" width="90" height="60" as="geometry" />
        </mxCell>
        <mxCell id="nLnUjlvC0J46Ff9aY2Y2-14" value="&lt;p style=&quot;line-height: 30%; font-size: 5px;&quot;&gt;&lt;font style=&quot;font-size: 5px;&quot;&gt;Nome/Código do&lt;/font&gt;&lt;/p&gt;&lt;p style=&quot;line-height: 30%; font-size: 5px;&quot;&gt;&lt;font style=&quot;font-size: 5px;&quot;&gt;Produto&lt;/font&gt;&lt;/p&gt;" style="text;html=1;align=center;verticalAlign=middle;resizable=0;points=[];autosize=1;strokeColor=none;fillColor=none;fontSize=9;" parent="dNxyNK7c78bLwvsdeMH5-20" vertex="1">
          <mxGeometry x="113" y="90" width="60" height="30" as="geometry" />
        </mxCell>
        <mxCell id="nLnUjlvC0J46Ff9aY2Y2-41" value="" style="group" parent="dNxyNK7c78bLwvsdeMH5-20" vertex="1" connectable="0">
          <mxGeometry x="260" y="45" width="30" height="30" as="geometry" />
        </mxCell>
        <mxCell id="nLnUjlvC0J46Ff9aY2Y2-38" value="" style="ellipse;whiteSpace=wrap;html=1;fillColor=#d5e8d4;strokeColor=#82b366;" parent="nLnUjlvC0J46Ff9aY2Y2-41" vertex="1">
          <mxGeometry width="30" height="30" as="geometry" />
        </mxCell>
        <mxCell id="nLnUjlvC0J46Ff9aY2Y2-39" value="" style="ellipse;whiteSpace=wrap;html=1;fillColor=#f5f5f5;strokeColor=#666666;fontColor=#333333;" parent="nLnUjlvC0J46Ff9aY2Y2-41" vertex="1">
          <mxGeometry width="30" height="30" as="geometry" />
        </mxCell>
        <mxCell id="nLnUjlvC0J46Ff9aY2Y2-40" value="" style="ellipse;whiteSpace=wrap;html=1;fillColor=#f5f5f5;strokeColor=#666666;fontColor=#333333;" parent="nLnUjlvC0J46Ff9aY2Y2-41" vertex="1">
          <mxGeometry x="5" y="5" width="20" height="20" as="geometry" />
        </mxCell>
        <mxCell id="nLnUjlvC0J46Ff9aY2Y2-42" value="Buscar categoria&lt;div&gt;de informação na FISPQ&lt;/div&gt;" style="rounded=1;whiteSpace=wrap;html=1;fontFamily=Helvetica;fontSize=9;align=center;fillColor=#dae8fc;strokeColor=#6c8ebf;" parent="dNxyNK7c78bLwvsdeMH5-20" vertex="1">
          <mxGeometry x="340" y="30" width="90" height="60" as="geometry" />
        </mxCell>
        <mxCell id="nLnUjlvC0J46Ff9aY2Y2-43" style="edgeStyle=orthogonalEdgeStyle;rounded=0;orthogonalLoop=1;jettySize=auto;html=1;exitX=1;exitY=0.5;exitDx=0;exitDy=0;entryX=0;entryY=0.5;entryDx=0;entryDy=0;" parent="dNxyNK7c78bLwvsdeMH5-20" source="nLnUjlvC0J46Ff9aY2Y2-39" target="nLnUjlvC0J46Ff9aY2Y2-42" edge="1">
          <mxGeometry relative="1" as="geometry" />
        </mxCell>
        <mxCell id="nLnUjlvC0J46Ff9aY2Y2-47" style="edgeStyle=orthogonalEdgeStyle;rounded=0;orthogonalLoop=1;jettySize=auto;html=1;exitX=1;exitY=0.5;exitDx=0;exitDy=0;entryX=0;entryY=0.5;entryDx=0;entryDy=0;" parent="dNxyNK7c78bLwvsdeMH5-20" target="nLnUjlvC0J46Ff9aY2Y2-49" edge="1">
          <mxGeometry relative="1" as="geometry">
            <mxPoint x="430" y="60" as="sourcePoint" />
            <Array as="points">
              <mxPoint x="440" y="60.5" />
              <mxPoint x="440" y="60.5" />
            </Array>
          </mxGeometry>
        </mxCell>
        <mxCell id="nLnUjlvC0J46Ff9aY2Y2-48" value="" style="group" parent="dNxyNK7c78bLwvsdeMH5-20" vertex="1" connectable="0">
          <mxGeometry x="470" y="45" width="30" height="30" as="geometry" />
        </mxCell>
        <mxCell id="nLnUjlvC0J46Ff9aY2Y2-49" value="" style="ellipse;whiteSpace=wrap;html=1;fillColor=#f8cecc;strokeColor=#b85450;" parent="nLnUjlvC0J46Ff9aY2Y2-48" vertex="1">
          <mxGeometry width="30" height="30" as="geometry" />
        </mxCell>
        <mxCell id="nLnUjlvC0J46Ff9aY2Y2-50" value="&lt;p style=&quot;line-height: 30%; font-size: 10px;&quot;&gt;2 horas&lt;/p&gt;" style="text;html=1;align=center;verticalAlign=middle;resizable=0;points=[];autosize=1;strokeColor=none;fillColor=none;fontSize=10;" parent="dNxyNK7c78bLwvsdeMH5-20" vertex="1">
          <mxGeometry x="245" y="64" width="60" height="40" as="geometry" />
        </mxCell>
        <mxCell id="dNxyNK7c78bLwvsdeMH5-21" value="Superintendente" style="swimlane;html=1;startSize=20;horizontal=0;" parent="dNxyNK7c78bLwvsdeMH5-19" vertex="1">
          <mxGeometry x="20" y="120" width="540" height="120" as="geometry" />
        </mxCell>
        <mxCell id="nLnUjlvC0J46Ff9aY2Y2-1" value="Enviar requisição para setor de gestão de produtos&lt;div style=&quot;font-size: 9px;&quot;&gt;químicos&lt;/div&gt;" style="rounded=1;whiteSpace=wrap;html=1;fontFamily=Helvetica;fontSize=9;align=center;fillColor=#dae8fc;strokeColor=#6c8ebf;" parent="dNxyNK7c78bLwvsdeMH5-21" vertex="1">
          <mxGeometry x="120" y="30" width="90" height="60" as="geometry" />
        </mxCell>
        <mxCell id="nLnUjlvC0J46Ff9aY2Y2-9" value="" style="group" parent="dNxyNK7c78bLwvsdeMH5-21" vertex="1" connectable="0">
          <mxGeometry x="50" y="45" width="30" height="30" as="geometry" />
        </mxCell>
        <mxCell id="nLnUjlvC0J46Ff9aY2Y2-2" value="" style="ellipse;whiteSpace=wrap;html=1;fillColor=#d5e8d4;strokeColor=#82b366;" parent="nLnUjlvC0J46Ff9aY2Y2-9" vertex="1">
          <mxGeometry width="30" height="30" as="geometry" />
        </mxCell>
        <mxCell id="nLnUjlvC0J46Ff9aY2Y2-8" value="" style="group" parent="nLnUjlvC0J46Ff9aY2Y2-9" vertex="1" connectable="0">
          <mxGeometry x="5" y="7" width="20" height="15" as="geometry" />
        </mxCell>
        <mxCell id="nLnUjlvC0J46Ff9aY2Y2-4" value="" style="rounded=1;whiteSpace=wrap;html=1;absoluteArcSize=1;arcSize=2;strokeWidth=1;fillColor=#d5e8d4;strokeColor=#82b366;" parent="nLnUjlvC0J46Ff9aY2Y2-8" vertex="1">
          <mxGeometry width="20" height="15" as="geometry" />
        </mxCell>
        <mxCell id="nLnUjlvC0J46Ff9aY2Y2-3" value="" style="strokeWidth=1;html=1;shape=mxgraph.flowchart.extract_or_measurement;whiteSpace=wrap;rotation=-180;fillColor=#d5e8d4;strokeColor=#82b366;" parent="nLnUjlvC0J46Ff9aY2Y2-8" vertex="1">
          <mxGeometry x="0.5" width="19" height="8.57142857142857" as="geometry" />
        </mxCell>
        <mxCell id="nLnUjlvC0J46Ff9aY2Y2-15" style="edgeStyle=orthogonalEdgeStyle;rounded=0;orthogonalLoop=1;jettySize=auto;html=1;entryX=0;entryY=0.5;entryDx=0;entryDy=0;" parent="dNxyNK7c78bLwvsdeMH5-21" source="nLnUjlvC0J46Ff9aY2Y2-2" target="nLnUjlvC0J46Ff9aY2Y2-1" edge="1">
          <mxGeometry relative="1" as="geometry" />
        </mxCell>
        <mxCell id="nLnUjlvC0J46Ff9aY2Y2-29" value="&lt;p style=&quot;line-height: 30%; font-size: 5px;&quot;&gt;&lt;font style=&quot;font-size: 5px;&quot;&gt;Nome/Código do&lt;/font&gt;&lt;/p&gt;&lt;p style=&quot;line-height: 30%; font-size: 5px;&quot;&gt;&lt;font style=&quot;font-size: 5px;&quot;&gt;Produto&lt;/font&gt;&lt;/p&gt;" style="text;html=1;align=center;verticalAlign=middle;resizable=0;points=[];autosize=1;strokeColor=none;fillColor=none;fontSize=9;" parent="dNxyNK7c78bLwvsdeMH5-21" vertex="1">
          <mxGeometry x="110" y="90" width="60" height="30" as="geometry" />
        </mxCell>
        <mxCell id="nLnUjlvC0J46Ff9aY2Y2-35" value="&lt;p style=&quot;line-height: 30%; font-size: 5px;&quot;&gt;FISPQ do&lt;/p&gt;&lt;p style=&quot;line-height: 30%; font-size: 5px;&quot;&gt;produto&lt;/p&gt;" style="text;html=1;align=center;verticalAlign=middle;resizable=0;points=[];autosize=1;strokeColor=none;fillColor=none;fontSize=9;" parent="dNxyNK7c78bLwvsdeMH5-21" vertex="1">
          <mxGeometry x="180" width="50" height="30" as="geometry" />
        </mxCell>
        <mxCell id="nLnUjlvC0J46Ff9aY2Y2-44" style="edgeStyle=orthogonalEdgeStyle;rounded=0;orthogonalLoop=1;jettySize=auto;html=1;exitX=1;exitY=0.5;exitDx=0;exitDy=0;entryX=0;entryY=0.5;entryDx=0;entryDy=0;" parent="dNxyNK7c78bLwvsdeMH5-21" target="nLnUjlvC0J46Ff9aY2Y2-46" edge="1">
          <mxGeometry relative="1" as="geometry">
            <mxPoint x="210" y="59.5" as="sourcePoint" />
            <Array as="points">
              <mxPoint x="220" y="60" />
              <mxPoint x="220" y="60" />
            </Array>
          </mxGeometry>
        </mxCell>
        <mxCell id="nLnUjlvC0J46Ff9aY2Y2-45" value="" style="group" parent="dNxyNK7c78bLwvsdeMH5-21" vertex="1" connectable="0">
          <mxGeometry x="250" y="44.5" width="30" height="30" as="geometry" />
        </mxCell>
        <mxCell id="nLnUjlvC0J46Ff9aY2Y2-46" value="" style="ellipse;whiteSpace=wrap;html=1;fillColor=#f8cecc;strokeColor=#b85450;" parent="nLnUjlvC0J46Ff9aY2Y2-45" vertex="1">
          <mxGeometry width="30" height="30" as="geometry" />
        </mxCell>
        <mxCell id="nLnUjlvC0J46Ff9aY2Y2-52" value="&lt;span style=&quot;color: rgb(204, 0, 0); font-size: 10px; font-style: italic; text-wrap: nowrap;&quot;&gt;O processo atual é burocrático: é necessário&lt;/span&gt;&lt;div style=&quot;color: rgb(204, 0, 0); font-size: 10px; font-style: italic; text-wrap: nowrap;&quot;&gt;um ator intermediário, o Superintendente,&lt;/div&gt;&lt;div style=&quot;color: rgb(204, 0, 0); font-size: 10px; font-style: italic; text-wrap: nowrap;&quot;&gt;o que pode atrasar ainda mais o acesso&lt;/div&gt;&lt;div style=&quot;color: rgb(204, 0, 0); font-size: 10px; font-style: italic; text-wrap: nowrap;&quot;&gt;do funcionário às informações de segurança.&lt;/div&gt;" style="rounded=1;whiteSpace=wrap;html=1;fillColor=#ffe6cc;strokeColor=#d79b00;" parent="dNxyNK7c78bLwvsdeMH5-21" vertex="1">
          <mxGeometry x="300" y="30" width="210" height="60" as="geometry" />
        </mxCell>
        <mxCell id="dNxyNK7c78bLwvsdeMH5-22" value="Gestor de Químicos" style="swimlane;html=1;startSize=20;horizontal=0;" parent="dNxyNK7c78bLwvsdeMH5-19" vertex="1">
          <mxGeometry x="20" y="240" width="540" height="120" as="geometry" />
        </mxCell>
        <mxCell id="nLnUjlvC0J46Ff9aY2Y2-16" value="" style="group" parent="dNxyNK7c78bLwvsdeMH5-22" vertex="1" connectable="0">
          <mxGeometry x="50" y="45" width="30" height="30" as="geometry" />
        </mxCell>
        <mxCell id="nLnUjlvC0J46Ff9aY2Y2-17" value="" style="ellipse;whiteSpace=wrap;html=1;fillColor=#d5e8d4;strokeColor=#82b366;" parent="nLnUjlvC0J46Ff9aY2Y2-16" vertex="1">
          <mxGeometry width="30" height="30" as="geometry" />
        </mxCell>
        <mxCell id="nLnUjlvC0J46Ff9aY2Y2-18" value="" style="group" parent="nLnUjlvC0J46Ff9aY2Y2-16" vertex="1" connectable="0">
          <mxGeometry x="5" y="7" width="20" height="15" as="geometry" />
        </mxCell>
        <mxCell id="nLnUjlvC0J46Ff9aY2Y2-19" value="" style="rounded=1;whiteSpace=wrap;html=1;absoluteArcSize=1;arcSize=2;strokeWidth=1;fillColor=#d5e8d4;strokeColor=#82b366;" parent="nLnUjlvC0J46Ff9aY2Y2-18" vertex="1">
          <mxGeometry width="20" height="15" as="geometry" />
        </mxCell>
        <mxCell id="nLnUjlvC0J46Ff9aY2Y2-20" value="" style="strokeWidth=1;html=1;shape=mxgraph.flowchart.extract_or_measurement;whiteSpace=wrap;rotation=-180;fillColor=#d5e8d4;strokeColor=#82b366;" parent="nLnUjlvC0J46Ff9aY2Y2-18" vertex="1">
          <mxGeometry x="0.5" width="19" height="8.57142857142857" as="geometry" />
        </mxCell>
        <mxCell id="nLnUjlvC0J46Ff9aY2Y2-31" style="edgeStyle=orthogonalEdgeStyle;rounded=0;orthogonalLoop=1;jettySize=auto;html=1;exitX=1;exitY=0.5;exitDx=0;exitDy=0;entryX=0;entryY=0.5;entryDx=0;entryDy=0;" parent="dNxyNK7c78bLwvsdeMH5-22" source="nLnUjlvC0J46Ff9aY2Y2-21" target="nLnUjlvC0J46Ff9aY2Y2-23" edge="1">
          <mxGeometry relative="1" as="geometry" />
        </mxCell>
        <mxCell id="nLnUjlvC0J46Ff9aY2Y2-21" value="Buscar Ficha de Informações no Arquivo" style="rounded=1;whiteSpace=wrap;html=1;fontFamily=Helvetica;fontSize=9;align=center;fillColor=#dae8fc;strokeColor=#6c8ebf;" parent="dNxyNK7c78bLwvsdeMH5-22" vertex="1">
          <mxGeometry x="120" y="30" width="90" height="60" as="geometry" />
        </mxCell>
        <mxCell id="nLnUjlvC0J46Ff9aY2Y2-27" value="" style="group" parent="dNxyNK7c78bLwvsdeMH5-22" vertex="1" connectable="0">
          <mxGeometry x="250" y="45" width="30" height="30" as="geometry" />
        </mxCell>
        <mxCell id="nLnUjlvC0J46Ff9aY2Y2-23" value="" style="ellipse;whiteSpace=wrap;html=1;fillColor=#f8cecc;strokeColor=#b85450;" parent="nLnUjlvC0J46Ff9aY2Y2-27" vertex="1">
          <mxGeometry width="30" height="30" as="geometry" />
        </mxCell>
        <mxCell id="nLnUjlvC0J46Ff9aY2Y2-30" style="edgeStyle=orthogonalEdgeStyle;rounded=0;orthogonalLoop=1;jettySize=auto;html=1;exitX=1;exitY=0.5;exitDx=0;exitDy=0;entryX=0;entryY=0.5;entryDx=0;entryDy=0;" parent="dNxyNK7c78bLwvsdeMH5-22" source="nLnUjlvC0J46Ff9aY2Y2-17" target="nLnUjlvC0J46Ff9aY2Y2-21" edge="1">
          <mxGeometry relative="1" as="geometry" />
        </mxCell>
        <mxCell id="nLnUjlvC0J46Ff9aY2Y2-33" value="&lt;p style=&quot;line-height: 30%; font-size: 5px;&quot;&gt;FISPQ do&lt;/p&gt;&lt;p style=&quot;line-height: 30%; font-size: 5px;&quot;&gt;produto&lt;/p&gt;" style="text;html=1;align=center;verticalAlign=middle;resizable=0;points=[];autosize=1;strokeColor=none;fillColor=none;fontSize=9;" parent="dNxyNK7c78bLwvsdeMH5-22" vertex="1">
          <mxGeometry x="180" width="50" height="30" as="geometry" />
        </mxCell>
        <mxCell id="nLnUjlvC0J46Ff9aY2Y2-54" style="edgeStyle=orthogonalEdgeStyle;rounded=0;orthogonalLoop=1;jettySize=auto;html=1;entryX=0.5;entryY=1;entryDx=0;entryDy=0;fillColor=#ffe6cc;strokeColor=#d79b00;" parent="1" source="nLnUjlvC0J46Ff9aY2Y2-53" target="nLnUjlvC0J46Ff9aY2Y2-21" edge="1">
          <mxGeometry relative="1" as="geometry" />
        </mxCell>
        <mxCell id="nLnUjlvC0J46Ff9aY2Y2-53" value="&lt;font color=&quot;#cc0000&quot;&gt;&lt;span style=&quot;font-size: 10px; text-wrap: nowrap;&quot;&gt;&lt;i&gt;A busca pela ficha é feita manualmente, visto&lt;/i&gt;&lt;/span&gt;&lt;/font&gt;&lt;div&gt;&lt;font color=&quot;#cc0000&quot;&gt;&lt;span style=&quot;font-size: 10px; text-wrap: nowrap;&quot;&gt;&lt;i&gt;que as fichas são armazenadas em um&lt;/i&gt;&lt;/span&gt;&lt;/font&gt;&lt;/div&gt;&lt;div&gt;&lt;font color=&quot;#cc0000&quot;&gt;&lt;span style=&quot;font-size: 10px; text-wrap: nowrap;&quot;&gt;&lt;i&gt;arquivo físico. Esta busca demora, em média,&lt;/i&gt;&lt;/span&gt;&lt;/font&gt;&lt;/div&gt;&lt;div&gt;&lt;font color=&quot;#cc0000&quot;&gt;&lt;span style=&quot;font-size: 10px; text-wrap: nowrap;&quot;&gt;&lt;i&gt;1 hora.&lt;/i&gt;&lt;/span&gt;&lt;/font&gt;&lt;/div&gt;" style="rounded=1;whiteSpace=wrap;html=1;fillColor=#ffe6cc;strokeColor=#d79b00;" parent="1" vertex="1">
          <mxGeometry x="200" y="500" width="210" height="60" as="geometry" />
        </mxCell>
        <mxCell id="nLnUjlvC0J46Ff9aY2Y2-56" style="rounded=0;orthogonalLoop=1;jettySize=auto;html=1;entryX=0.204;entryY=0.101;entryDx=0;entryDy=0;fillColor=#ffe6cc;strokeColor=#d79b00;entryPerimeter=0;" parent="1" source="nLnUjlvC0J46Ff9aY2Y2-55" target="nLnUjlvC0J46Ff9aY2Y2-39" edge="1">
          <mxGeometry relative="1" as="geometry" />
        </mxCell>
        <mxCell id="nLnUjlvC0J46Ff9aY2Y2-55" value="&lt;font color=&quot;#cc0000&quot;&gt;&lt;span style=&quot;font-size: 10px; text-wrap: nowrap;&quot;&gt;&lt;i&gt;Desde a requisição da ficha, intermédio do&lt;/i&gt;&lt;/span&gt;&lt;/font&gt;&lt;div&gt;&lt;font color=&quot;#cc0000&quot;&gt;&lt;span style=&quot;font-size: 10px; text-wrap: nowrap;&quot;&gt;&lt;i&gt;Superintendente, resposta do setor de químicos,&lt;/i&gt;&lt;/span&gt;&lt;/font&gt;&lt;/div&gt;&lt;div&gt;&lt;font color=&quot;#cc0000&quot;&gt;&lt;span style=&quot;font-size: 10px; text-wrap: nowrap;&quot;&gt;&lt;i&gt;devolução do Superintendente e, finalmente, entrega da&lt;/i&gt;&lt;/span&gt;&lt;/font&gt;&lt;/div&gt;&lt;div&gt;&lt;font color=&quot;#cc0000&quot;&gt;&lt;span style=&quot;font-size: 10px; text-wrap: nowrap;&quot;&gt;&lt;i&gt;ficha ao funcionário, todo o processo demora, em média,&lt;/i&gt;&lt;/span&gt;&lt;/font&gt;&lt;/div&gt;&lt;div&gt;&lt;font color=&quot;#cc0000&quot;&gt;&lt;span style=&quot;font-size: 10px; text-wrap: nowrap;&quot;&gt;&lt;i&gt;2 horas.&lt;/i&gt;&lt;/span&gt;&lt;/font&gt;&lt;/div&gt;" style="rounded=1;whiteSpace=wrap;html=1;fillColor=#ffe6cc;strokeColor=#d79b00;" parent="1" vertex="1">
          <mxGeometry x="200" y="20" width="270" height="80" as="geometry" />
        </mxCell>
        <mxCell id="nLnUjlvC0J46Ff9aY2Y2-58" style="rounded=0;orthogonalLoop=1;jettySize=auto;html=1;exitX=0.5;exitY=1;exitDx=0;exitDy=0;entryX=0.941;entryY=0.028;entryDx=0;entryDy=0;fillColor=#ffe6cc;strokeColor=#d79b00;entryPerimeter=0;" parent="1" source="nLnUjlvC0J46Ff9aY2Y2-57" target="nLnUjlvC0J46Ff9aY2Y2-42" edge="1">
          <mxGeometry relative="1" as="geometry" />
        </mxCell>
        <mxCell id="nLnUjlvC0J46Ff9aY2Y2-57" value="&lt;font color=&quot;#cc0000&quot;&gt;&lt;span style=&quot;font-size: 10px; text-wrap: nowrap;&quot;&gt;&lt;i&gt;Por se tratar de um documento de 10 páginas com mais&lt;/i&gt;&lt;/span&gt;&lt;/font&gt;&lt;div&gt;&lt;font color=&quot;#cc0000&quot;&gt;&lt;span style=&quot;font-size: 10px; text-wrap: nowrap;&quot;&gt;&lt;i&gt;de 10 categorias de informação de segurança, essa busca&lt;/i&gt;&lt;/span&gt;&lt;/font&gt;&lt;/div&gt;&lt;div&gt;&lt;font color=&quot;#cc0000&quot;&gt;&lt;span style=&quot;font-size: 10px; text-wrap: nowrap;&quot;&gt;&lt;i&gt;da categoria, pelo funcionário, pode demorar ainda mais&lt;/i&gt;&lt;/span&gt;&lt;/font&gt;&lt;/div&gt;&lt;div&gt;&lt;font color=&quot;#cc0000&quot;&gt;&lt;span style=&quot;font-size: 10px; text-wrap: nowrap;&quot;&gt;&lt;i&gt;tempo.&lt;/i&gt;&lt;/span&gt;&lt;/font&gt;&lt;/div&gt;" style="rounded=1;whiteSpace=wrap;html=1;fillColor=#ffe6cc;strokeColor=#d79b00;" parent="1" vertex="1">
          <mxGeometry x="500" y="20" width="270" height="80" as="geometry" />
        </mxCell>
      </root>
    </mxGraphModel>
  </diagram>
</mxfile>
